<mxfile host="app.diagrams.net" agent="Mozilla/5.0 (Windows NT 10.0; Win64; x64; rv:135.0) Gecko/20100101 Firefox/135.0" version="26.0.16">
  <diagram name="1 oldal" id="iCavI7vv8ZMhhtlTud_S">
    <mxGraphModel dx="2390" dy="1290" grid="1" gridSize="10" guides="1" tooltips="1" connect="1" arrows="1" fold="1" page="1" pageScale="1" pageWidth="850" pageHeight="1100" math="0" shadow="0">
      <root>
        <mxCell id="0" />
        <mxCell id="1" parent="0" />
        <mxCell id="R1OB0yGb1VuW6Jd-PAWR-1" value="&lt;i style=&quot;&quot;&gt;Tecton&lt;/i&gt;" style="swimlane;fontStyle=1;align=center;verticalAlign=top;childLayout=stackLayout;horizontal=1;startSize=26;horizontalStack=0;resizeParent=1;resizeParentMax=0;resizeLast=0;collapsible=1;marginBottom=0;whiteSpace=wrap;html=1;" parent="1" vertex="1">
          <mxGeometry x="400" y="771" width="210" height="150" as="geometry">
            <mxRectangle x="240" y="190" width="80" height="30" as="alternateBounds" />
          </mxGeometry>
        </mxCell>
        <mxCell id="R1OB0yGb1VuW6Jd-PAWR-2" value="&lt;div&gt;+ mushroomBody&lt;/div&gt;&lt;div&gt;+ mycelia&lt;/div&gt;" style="text;strokeColor=none;fillColor=none;align=left;verticalAlign=top;spacingLeft=4;spacingRight=4;overflow=hidden;rotatable=0;points=[[0,0.5],[1,0.5]];portConstraint=eastwest;whiteSpace=wrap;html=1;" parent="R1OB0yGb1VuW6Jd-PAWR-1" vertex="1">
          <mxGeometry y="26" width="210" height="34" as="geometry" />
        </mxCell>
        <mxCell id="R1OB0yGb1VuW6Jd-PAWR-3" value="" style="line;strokeWidth=1;fillColor=none;align=left;verticalAlign=middle;spacingTop=-1;spacingLeft=3;spacingRight=3;rotatable=0;labelPosition=right;points=[];portConstraint=eastwest;strokeColor=inherit;" parent="R1OB0yGb1VuW6Jd-PAWR-1" vertex="1">
          <mxGeometry y="60" width="210" height="8" as="geometry" />
        </mxCell>
        <mxCell id="R1OB0yGb1VuW6Jd-PAWR-4" value="+canGrownMycelium()&lt;div&gt;+canGrowMushroomBody()&lt;/div&gt;&lt;div&gt;+growMushroomBody()&lt;/div&gt;&lt;div&gt;+growMycelium()&lt;/div&gt;&lt;div&gt;+onTurnBegin(e: Player)&lt;/div&gt;&lt;div&gt;&lt;br&gt;&lt;/div&gt;" style="text;strokeColor=none;fillColor=none;align=left;verticalAlign=top;spacingLeft=4;spacingRight=4;overflow=hidden;rotatable=0;points=[[0,0.5],[1,0.5]];portConstraint=eastwest;whiteSpace=wrap;html=1;" parent="R1OB0yGb1VuW6Jd-PAWR-1" vertex="1">
          <mxGeometry y="68" width="210" height="82" as="geometry" />
        </mxCell>
        <mxCell id="R1OB0yGb1VuW6Jd-PAWR-5" value="CoarseTecton" style="swimlane;fontStyle=1;align=center;verticalAlign=top;childLayout=stackLayout;horizontal=1;startSize=26;horizontalStack=0;resizeParent=1;resizeParentMax=0;resizeLast=0;collapsible=1;marginBottom=0;whiteSpace=wrap;html=1;" parent="1" vertex="1">
          <mxGeometry x="250" y="1016" width="200" height="74" as="geometry" />
        </mxCell>
        <mxCell id="R1OB0yGb1VuW6Jd-PAWR-7" value="" style="line;strokeWidth=1;fillColor=none;align=left;verticalAlign=middle;spacingTop=-1;spacingLeft=3;spacingRight=3;rotatable=0;labelPosition=right;points=[];portConstraint=eastwest;strokeColor=inherit;" parent="R1OB0yGb1VuW6Jd-PAWR-5" vertex="1">
          <mxGeometry y="26" width="200" height="8" as="geometry" />
        </mxCell>
        <mxCell id="R1OB0yGb1VuW6Jd-PAWR-8" value="+canGrownMycelium()&lt;div&gt;+canGrowMushroomBody()&lt;/div&gt;" style="text;strokeColor=none;fillColor=none;align=left;verticalAlign=top;spacingLeft=4;spacingRight=4;overflow=hidden;rotatable=0;points=[[0,0.5],[1,0.5]];portConstraint=eastwest;whiteSpace=wrap;html=1;" parent="R1OB0yGb1VuW6Jd-PAWR-5" vertex="1">
          <mxGeometry y="34" width="200" height="40" as="geometry" />
        </mxCell>
        <mxCell id="R1OB0yGb1VuW6Jd-PAWR-9" value="FertileTecton" style="swimlane;fontStyle=1;align=center;verticalAlign=top;childLayout=stackLayout;horizontal=1;startSize=26;horizontalStack=0;resizeParent=1;resizeParentMax=0;resizeLast=0;collapsible=1;marginBottom=0;whiteSpace=wrap;html=1;" parent="1" vertex="1">
          <mxGeometry x="485" y="1019" width="240" height="74" as="geometry" />
        </mxCell>
        <mxCell id="R1OB0yGb1VuW6Jd-PAWR-11" value="" style="line;strokeWidth=1;fillColor=none;align=left;verticalAlign=middle;spacingTop=-1;spacingLeft=3;spacingRight=3;rotatable=0;labelPosition=right;points=[];portConstraint=eastwest;strokeColor=inherit;" parent="R1OB0yGb1VuW6Jd-PAWR-9" vertex="1">
          <mxGeometry y="26" width="240" height="8" as="geometry" />
        </mxCell>
        <mxCell id="R1OB0yGb1VuW6Jd-PAWR-12" value="&lt;div&gt;+canGrownMycelium()&lt;div&gt;+canGrowMushroomBody()&lt;/div&gt;&lt;/div&gt;" style="text;strokeColor=none;fillColor=none;align=left;verticalAlign=top;spacingLeft=4;spacingRight=4;overflow=hidden;rotatable=0;points=[[0,0.5],[1,0.5]];portConstraint=eastwest;whiteSpace=wrap;html=1;" parent="R1OB0yGb1VuW6Jd-PAWR-9" vertex="1">
          <mxGeometry y="34" width="240" height="40" as="geometry" />
        </mxCell>
        <mxCell id="R1OB0yGb1VuW6Jd-PAWR-13" value="" style="endArrow=block;endSize=16;endFill=0;html=1;rounded=0;" parent="1" source="R1OB0yGb1VuW6Jd-PAWR-5" target="R1OB0yGb1VuW6Jd-PAWR-1" edge="1">
          <mxGeometry width="160" relative="1" as="geometry">
            <mxPoint x="390" y="861" as="sourcePoint" />
            <mxPoint x="370" y="911" as="targetPoint" />
            <Array as="points" />
          </mxGeometry>
        </mxCell>
        <mxCell id="R1OB0yGb1VuW6Jd-PAWR-14" value="" style="endArrow=block;endSize=16;endFill=0;html=1;rounded=0;" parent="1" source="R1OB0yGb1VuW6Jd-PAWR-9" target="R1OB0yGb1VuW6Jd-PAWR-1" edge="1">
          <mxGeometry width="160" relative="1" as="geometry">
            <mxPoint x="464" y="861" as="sourcePoint" />
            <mxPoint x="520" y="921" as="targetPoint" />
          </mxGeometry>
        </mxCell>
        <mxCell id="R1OB0yGb1VuW6Jd-PAWR-15" value="MultiLayeredTecton" style="swimlane;fontStyle=1;align=center;verticalAlign=top;childLayout=stackLayout;horizontal=1;startSize=26;horizontalStack=0;resizeParent=1;resizeParentMax=0;resizeLast=0;collapsible=1;marginBottom=0;whiteSpace=wrap;html=1;" parent="1" vertex="1">
          <mxGeometry x="355" y="1197" width="210" height="74" as="geometry" />
        </mxCell>
        <mxCell id="R1OB0yGb1VuW6Jd-PAWR-17" value="" style="line;strokeWidth=1;fillColor=none;align=left;verticalAlign=middle;spacingTop=-1;spacingLeft=3;spacingRight=3;rotatable=0;labelPosition=right;points=[];portConstraint=eastwest;strokeColor=inherit;" parent="R1OB0yGb1VuW6Jd-PAWR-15" vertex="1">
          <mxGeometry y="26" width="210" height="8" as="geometry" />
        </mxCell>
        <mxCell id="R1OB0yGb1VuW6Jd-PAWR-18" value="+canGrownMycelium()&lt;div&gt;+canGrowMushroomBody()&lt;/div&gt;" style="text;strokeColor=none;fillColor=none;align=left;verticalAlign=top;spacingLeft=4;spacingRight=4;overflow=hidden;rotatable=0;points=[[0,0.5],[1,0.5]];portConstraint=eastwest;whiteSpace=wrap;html=1;" parent="R1OB0yGb1VuW6Jd-PAWR-15" vertex="1">
          <mxGeometry y="34" width="210" height="40" as="geometry" />
        </mxCell>
        <mxCell id="R1OB0yGb1VuW6Jd-PAWR-19" value="AridTecton" style="swimlane;fontStyle=1;align=center;verticalAlign=top;childLayout=stackLayout;horizontal=1;startSize=26;horizontalStack=0;resizeParent=1;resizeParentMax=0;resizeLast=0;collapsible=1;marginBottom=0;whiteSpace=wrap;html=1;" parent="1" vertex="1">
          <mxGeometry x="595" y="1197" width="240" height="100" as="geometry" />
        </mxCell>
        <mxCell id="R1OB0yGb1VuW6Jd-PAWR-21" value="" style="line;strokeWidth=1;fillColor=none;align=left;verticalAlign=middle;spacingTop=-1;spacingLeft=3;spacingRight=3;rotatable=0;labelPosition=right;points=[];portConstraint=eastwest;strokeColor=inherit;" parent="R1OB0yGb1VuW6Jd-PAWR-19" vertex="1">
          <mxGeometry y="26" width="240" height="8" as="geometry" />
        </mxCell>
        <mxCell id="R1OB0yGb1VuW6Jd-PAWR-22" value="+canGrownMycelium()&lt;div&gt;+canGrowMushroomBody()&lt;/div&gt;&lt;div&gt;+onTurnBegin(e: Player)&lt;/div&gt;&lt;div&gt;+growMycelium()&lt;/div&gt;&lt;div&gt;&lt;br&gt;&lt;/div&gt;" style="text;strokeColor=none;fillColor=none;align=left;verticalAlign=top;spacingLeft=4;spacingRight=4;overflow=hidden;rotatable=0;points=[[0,0.5],[1,0.5]];portConstraint=eastwest;whiteSpace=wrap;html=1;" parent="R1OB0yGb1VuW6Jd-PAWR-19" vertex="1">
          <mxGeometry y="34" width="240" height="66" as="geometry" />
        </mxCell>
        <mxCell id="R1OB0yGb1VuW6Jd-PAWR-23" value="" style="endArrow=block;endSize=16;endFill=0;html=1;rounded=0;" parent="1" source="R1OB0yGb1VuW6Jd-PAWR-19" target="R1OB0yGb1VuW6Jd-PAWR-9" edge="1">
          <mxGeometry width="160" relative="1" as="geometry">
            <mxPoint x="605" y="1182" as="sourcePoint" />
            <mxPoint x="615" y="1130" as="targetPoint" />
          </mxGeometry>
        </mxCell>
        <mxCell id="R1OB0yGb1VuW6Jd-PAWR-24" value="" style="endArrow=block;endSize=16;endFill=0;html=1;rounded=0;exitX=0.5;exitY=0;exitDx=0;exitDy=0;entryX=0.25;entryY=1;entryDx=0;entryDy=0;" parent="1" source="R1OB0yGb1VuW6Jd-PAWR-15" target="R1OB0yGb1VuW6Jd-PAWR-9" edge="1">
          <mxGeometry x="0.0027" width="160" relative="1" as="geometry">
            <mxPoint x="395" y="1160" as="sourcePoint" />
            <mxPoint x="315" y="1160" as="targetPoint" />
            <mxPoint as="offset" />
          </mxGeometry>
        </mxCell>
        <mxCell id="R1OB0yGb1VuW6Jd-PAWR-25" value="&lt;p style=&quot;margin:0px;margin-top:4px;text-align:center;&quot;&gt;&lt;b&gt;&lt;i&gt;Mushroom&lt;/i&gt;&lt;/b&gt;&lt;/p&gt;&lt;hr size=&quot;1&quot; style=&quot;border-style:solid;&quot;&gt;&lt;p style=&quot;margin:0px;margin-left:4px;&quot;&gt;+location:Tecton&lt;/p&gt;&lt;p style=&quot;margin:0px;margin-left:4px;&quot;&gt;+owner: Mycologist&lt;/p&gt;&lt;hr size=&quot;1&quot; style=&quot;border-style:solid;&quot;&gt;&lt;p style=&quot;margin:0px;margin-left:4px;&quot;&gt;+growMycelium()&lt;/p&gt;&lt;p style=&quot;margin:0px;margin-left:4px;&quot;&gt;+sustains()&lt;/p&gt;" style="verticalAlign=top;align=left;overflow=fill;html=1;whiteSpace=wrap;" parent="1" vertex="1">
          <mxGeometry x="1130" y="1148" width="160" height="112" as="geometry" />
        </mxCell>
        <mxCell id="R1OB0yGb1VuW6Jd-PAWR-26" style="edgeStyle=orthogonalEdgeStyle;rounded=0;orthogonalLoop=1;jettySize=auto;html=1;exitX=0.5;exitY=1;exitDx=0;exitDy=0;" parent="1" source="R1OB0yGb1VuW6Jd-PAWR-25" target="R1OB0yGb1VuW6Jd-PAWR-25" edge="1">
          <mxGeometry relative="1" as="geometry" />
        </mxCell>
        <mxCell id="R1OB0yGb1VuW6Jd-PAWR-27" value="Mycelium" style="swimlane;fontStyle=1;align=center;verticalAlign=top;childLayout=stackLayout;horizontal=1;startSize=26;horizontalStack=0;resizeParent=1;resizeParentMax=0;resizeLast=0;collapsible=1;marginBottom=0;whiteSpace=wrap;html=1;" parent="1" vertex="1">
          <mxGeometry x="1040" y="1350" width="160" height="84" as="geometry" />
        </mxCell>
        <mxCell id="R1OB0yGb1VuW6Jd-PAWR-29" value="" style="line;strokeWidth=1;fillColor=none;align=left;verticalAlign=middle;spacingTop=-1;spacingLeft=3;spacingRight=3;rotatable=0;labelPosition=right;points=[];portConstraint=eastwest;strokeColor=inherit;" parent="R1OB0yGb1VuW6Jd-PAWR-27" vertex="1">
          <mxGeometry y="26" width="160" height="8" as="geometry" />
        </mxCell>
        <mxCell id="R1OB0yGb1VuW6Jd-PAWR-30" value="&lt;div&gt;+cut()&lt;/div&gt;&lt;div&gt;+delete()&lt;/div&gt;&lt;div&gt;+sustains()&lt;/div&gt;" style="text;strokeColor=none;fillColor=none;align=left;verticalAlign=top;spacingLeft=4;spacingRight=4;overflow=hidden;rotatable=0;points=[[0,0.5],[1,0.5]];portConstraint=eastwest;whiteSpace=wrap;html=1;" parent="R1OB0yGb1VuW6Jd-PAWR-27" vertex="1">
          <mxGeometry y="34" width="160" height="50" as="geometry" />
        </mxCell>
        <mxCell id="R1OB0yGb1VuW6Jd-PAWR-31" value="MushroomBody" style="swimlane;fontStyle=1;align=center;verticalAlign=top;childLayout=stackLayout;horizontal=1;startSize=26;horizontalStack=0;resizeParent=1;resizeParentMax=0;resizeLast=0;collapsible=1;marginBottom=0;whiteSpace=wrap;html=1;" parent="1" vertex="1">
          <mxGeometry x="1270" y="1350" width="180" height="94" as="geometry" />
        </mxCell>
        <mxCell id="R1OB0yGb1VuW6Jd-PAWR-33" value="" style="line;strokeWidth=1;fillColor=none;align=left;verticalAlign=middle;spacingTop=-1;spacingLeft=3;spacingRight=3;rotatable=0;labelPosition=right;points=[];portConstraint=eastwest;strokeColor=inherit;" parent="R1OB0yGb1VuW6Jd-PAWR-31" vertex="1">
          <mxGeometry y="26" width="180" height="8" as="geometry" />
        </mxCell>
        <mxCell id="R1OB0yGb1VuW6Jd-PAWR-34" value="&lt;div&gt;+ejectSpores(target: Tecton)&lt;/div&gt;&lt;div&gt;+sustains()&lt;/div&gt;&lt;div&gt;+onTurnBegin(e: Player)&lt;/div&gt;" style="text;strokeColor=none;fillColor=none;align=left;verticalAlign=top;spacingLeft=4;spacingRight=4;overflow=hidden;rotatable=0;points=[[0,0.5],[1,0.5]];portConstraint=eastwest;whiteSpace=wrap;html=1;" parent="R1OB0yGb1VuW6Jd-PAWR-31" vertex="1">
          <mxGeometry y="34" width="180" height="60" as="geometry" />
        </mxCell>
        <mxCell id="R1OB0yGb1VuW6Jd-PAWR-35" value="" style="endArrow=block;endSize=16;endFill=0;html=1;rounded=0;exitX=0.5;exitY=0;exitDx=0;exitDy=0;entryX=0.884;entryY=1.014;entryDx=0;entryDy=0;entryPerimeter=0;jumpStyle=arc;" parent="1" source="R1OB0yGb1VuW6Jd-PAWR-31" target="R1OB0yGb1VuW6Jd-PAWR-25" edge="1">
          <mxGeometry width="160" relative="1" as="geometry">
            <mxPoint x="540" y="1273" as="sourcePoint" />
            <mxPoint x="1190" y="1163" as="targetPoint" />
          </mxGeometry>
        </mxCell>
        <mxCell id="R1OB0yGb1VuW6Jd-PAWR-36" value="" style="endArrow=block;endSize=16;endFill=0;html=1;rounded=0;entryX=0.25;entryY=1;entryDx=0;entryDy=0;" parent="1" source="R1OB0yGb1VuW6Jd-PAWR-27" target="R1OB0yGb1VuW6Jd-PAWR-25" edge="1">
          <mxGeometry width="160" relative="1" as="geometry">
            <mxPoint x="1690" y="1249" as="sourcePoint" />
            <mxPoint x="930" y="1163" as="targetPoint" />
          </mxGeometry>
        </mxCell>
        <mxCell id="R1OB0yGb1VuW6Jd-PAWR-37" value="Spore" style="swimlane;fontStyle=1;align=center;verticalAlign=top;childLayout=stackLayout;horizontal=1;startSize=26;horizontalStack=0;resizeParent=1;resizeParentMax=0;resizeLast=0;collapsible=1;marginBottom=0;whiteSpace=wrap;html=1;" parent="1" vertex="1">
          <mxGeometry x="1640" y="678" width="160" height="60" as="geometry" />
        </mxCell>
        <mxCell id="R1OB0yGb1VuW6Jd-PAWR-39" value="" style="line;strokeWidth=1;fillColor=none;align=left;verticalAlign=middle;spacingTop=-1;spacingLeft=3;spacingRight=3;rotatable=0;labelPosition=right;points=[];portConstraint=eastwest;strokeColor=inherit;" parent="R1OB0yGb1VuW6Jd-PAWR-37" vertex="1">
          <mxGeometry y="26" width="160" height="8" as="geometry" />
        </mxCell>
        <mxCell id="R1OB0yGb1VuW6Jd-PAWR-40" value="+getEffect()" style="text;strokeColor=none;fillColor=none;align=left;verticalAlign=top;spacingLeft=4;spacingRight=4;overflow=hidden;rotatable=0;points=[[0,0.5],[1,0.5]];portConstraint=eastwest;whiteSpace=wrap;html=1;" parent="R1OB0yGb1VuW6Jd-PAWR-37" vertex="1">
          <mxGeometry y="34" width="160" height="26" as="geometry" />
        </mxCell>
        <mxCell id="R1OB0yGb1VuW6Jd-PAWR-41" value="Insect" style="swimlane;fontStyle=1;align=center;verticalAlign=top;childLayout=stackLayout;horizontal=1;startSize=26;horizontalStack=0;resizeParent=1;resizeParentMax=0;resizeLast=0;collapsible=1;marginBottom=0;whiteSpace=wrap;html=1;" parent="1" vertex="1">
          <mxGeometry x="1460" y="1160" width="160" height="168" as="geometry" />
        </mxCell>
        <mxCell id="R1OB0yGb1VuW6Jd-PAWR-42" value="+location:Tecton&lt;div&gt;+remainingMoves:int&lt;/div&gt;&lt;div&gt;+sporeCount: int&lt;/div&gt;&lt;div&gt;+owner: Entomologist&lt;/div&gt;&lt;div&gt;&lt;br&gt;&lt;/div&gt;" style="text;strokeColor=none;fillColor=none;align=left;verticalAlign=top;spacingLeft=4;spacingRight=4;overflow=hidden;rotatable=0;points=[[0,0.5],[1,0.5]];portConstraint=eastwest;whiteSpace=wrap;html=1;" parent="R1OB0yGb1VuW6Jd-PAWR-41" vertex="1">
          <mxGeometry y="26" width="160" height="64" as="geometry" />
        </mxCell>
        <mxCell id="R1OB0yGb1VuW6Jd-PAWR-43" value="" style="line;strokeWidth=1;fillColor=none;align=left;verticalAlign=middle;spacingTop=-1;spacingLeft=3;spacingRight=3;rotatable=0;labelPosition=right;points=[];portConstraint=eastwest;strokeColor=inherit;" parent="R1OB0yGb1VuW6Jd-PAWR-41" vertex="1">
          <mxGeometry y="90" width="160" height="8" as="geometry" />
        </mxCell>
        <mxCell id="R1OB0yGb1VuW6Jd-PAWR-44" value="+cutMycelium()&lt;div&gt;+eatSpore()&lt;/div&gt;&lt;div&gt;+move()&lt;/div&gt;&lt;div&gt;+onTurnBegin()&lt;/div&gt;" style="text;strokeColor=none;fillColor=none;align=left;verticalAlign=top;spacingLeft=4;spacingRight=4;overflow=hidden;rotatable=0;points=[[0,0.5],[1,0.5]];portConstraint=eastwest;whiteSpace=wrap;html=1;" parent="R1OB0yGb1VuW6Jd-PAWR-41" vertex="1">
          <mxGeometry y="98" width="160" height="70" as="geometry" />
        </mxCell>
        <mxCell id="R1OB0yGb1VuW6Jd-PAWR-45" value="GameManager" style="swimlane;fontStyle=1;align=center;verticalAlign=top;childLayout=stackLayout;horizontal=1;startSize=26;horizontalStack=0;resizeParent=1;resizeParentMax=0;resizeLast=0;collapsible=1;marginBottom=0;whiteSpace=wrap;html=1;" parent="1" vertex="1">
          <mxGeometry x="835" y="380" width="230" height="130" as="geometry" />
        </mxCell>
        <mxCell id="R1OB0yGb1VuW6Jd-PAWR-47" value="" style="line;strokeWidth=1;fillColor=none;align=left;verticalAlign=middle;spacingTop=-1;spacingLeft=3;spacingRight=3;rotatable=0;labelPosition=right;points=[];portConstraint=eastwest;strokeColor=inherit;" parent="R1OB0yGb1VuW6Jd-PAWR-45" vertex="1">
          <mxGeometry y="26" width="230" height="20" as="geometry" />
        </mxCell>
        <mxCell id="R1OB0yGb1VuW6Jd-PAWR-48" value="&lt;div&gt;+startNewGame()&lt;/div&gt;&lt;div&gt;+determineWinner()&lt;/div&gt;&lt;div&gt;+subcribe(s: GameBeginSubscriber)&lt;/div&gt;&lt;div&gt;+unsubcribe(s: GameBeginSubscriber)&lt;/div&gt;&lt;div&gt;+addPlayer(p: Player)&lt;/div&gt;" style="text;strokeColor=none;fillColor=none;align=left;verticalAlign=top;spacingLeft=4;spacingRight=4;overflow=hidden;rotatable=0;points=[[0,0.5],[1,0.5]];portConstraint=eastwest;whiteSpace=wrap;html=1;" parent="R1OB0yGb1VuW6Jd-PAWR-45" vertex="1">
          <mxGeometry y="46" width="230" height="84" as="geometry" />
        </mxCell>
        <mxCell id="R1OB0yGb1VuW6Jd-PAWR-57" value="" style="endArrow=block;endSize=16;endFill=0;html=1;rounded=0;entryX=0.25;entryY=1;entryDx=0;entryDy=0;edgeStyle=orthogonalEdgeStyle;" parent="1" source="SSjtnIJCoIMd_DeUDMs2-13" target="ASJvsTNGaL9EbCQtERID-10" edge="1">
          <mxGeometry width="160" relative="1" as="geometry">
            <mxPoint x="1506.5432098765432" y="881" as="sourcePoint" />
            <mxPoint x="1374.2857142857142" y="814" as="targetPoint" />
            <Array as="points">
              <mxPoint x="1210" y="910" />
              <mxPoint x="1370" y="910" />
            </Array>
          </mxGeometry>
        </mxCell>
        <mxCell id="R1OB0yGb1VuW6Jd-PAWR-58" value="&lt;font&gt;&lt;b style=&quot;color: rgb(32, 33, 34); font-family: sans-serif; text-align: start; background-color: rgb(255, 255, 255);&quot;&gt;«&lt;/b&gt;&lt;span style=&quot;color: rgb(32, 33, 34); font-family: sans-serif; text-align: start; background-color: rgb(255, 255, 255);&quot;&gt;&lt;font style=&quot;&quot;&gt;Enumeration&lt;/font&gt;&lt;/span&gt;&lt;b style=&quot;color: rgb(32, 33, 34); font-family: sans-serif; text-align: start; background-color: rgb(255, 255, 255);&quot;&gt;»&lt;/b&gt;&lt;/font&gt;&lt;div&gt;&lt;font&gt;&lt;b style=&quot;color: rgb(32, 33, 34); font-family: sans-serif; text-align: start; background-color: rgb(255, 255, 255);&quot;&gt;InsectEffect&lt;/b&gt;&lt;/font&gt;&lt;/div&gt;" style="swimlane;fontStyle=0;childLayout=stackLayout;horizontal=1;startSize=50;fillColor=none;horizontalStack=0;resizeParent=1;resizeParentMax=0;resizeLast=0;collapsible=1;marginBottom=0;whiteSpace=wrap;html=1;" parent="1" vertex="1">
          <mxGeometry x="1650" y="816" width="140" height="130" as="geometry" />
        </mxCell>
        <mxCell id="R1OB0yGb1VuW6Jd-PAWR-59" value="slowness&lt;div&gt;speed&lt;/div&gt;&lt;div&gt;preventCut&lt;/div&gt;&lt;div&gt;stun&lt;/div&gt;&lt;div&gt;nothing&lt;/div&gt;" style="text;strokeColor=none;fillColor=none;align=left;verticalAlign=top;spacingLeft=4;spacingRight=4;overflow=hidden;rotatable=0;points=[[0,0.5],[1,0.5]];portConstraint=eastwest;whiteSpace=wrap;html=1;" parent="R1OB0yGb1VuW6Jd-PAWR-58" vertex="1">
          <mxGeometry y="50" width="140" height="80" as="geometry" />
        </mxCell>
        <mxCell id="R1OB0yGb1VuW6Jd-PAWR-60" value="" style="endArrow=open;endSize=12;dashed=1;html=1;rounded=0;" parent="1" source="R1OB0yGb1VuW6Jd-PAWR-40" target="R1OB0yGb1VuW6Jd-PAWR-58" edge="1">
          <mxGeometry width="160" relative="1" as="geometry">
            <mxPoint x="1580" y="791" as="sourcePoint" />
            <mxPoint x="990" y="771" as="targetPoint" />
          </mxGeometry>
        </mxCell>
        <mxCell id="R1OB0yGb1VuW6Jd-PAWR-64" value="&lt;font style=&quot;font-weight: 700;&quot;&gt;&lt;span style=&quot;font-weight: 400; color: rgb(32, 33, 34); font-family: sans-serif; text-align: start; background-color: rgb(255, 255, 255);&quot;&gt;«&lt;/span&gt;&lt;span style=&quot;color: rgb(32, 33, 34); font-family: sans-serif; text-align: start; background-color: rgb(255, 255, 255); font-weight: 400;&quot;&gt;Interface&lt;/span&gt;&lt;span style=&quot;font-weight: 400; color: rgb(32, 33, 34); font-family: sans-serif; text-align: start; background-color: rgb(255, 255, 255);&quot;&gt;»&lt;/span&gt;&lt;/font&gt;&lt;div style=&quot;font-weight: 700; text-align: start;&quot;&gt;&lt;font face=&quot;sans-serif&quot;&gt;&lt;span style=&quot;background-color: rgb(255, 255, 255);&quot;&gt;TurnBeginSubscriber&lt;/span&gt;&lt;/font&gt;&lt;/div&gt;" style="swimlane;fontStyle=0;childLayout=stackLayout;horizontal=1;startSize=39;fillColor=none;horizontalStack=0;resizeParent=1;resizeParentMax=0;resizeLast=0;collapsible=1;marginBottom=0;whiteSpace=wrap;html=1;" parent="1" vertex="1">
          <mxGeometry x="860" y="751" width="180" height="65" as="geometry" />
        </mxCell>
        <mxCell id="R1OB0yGb1VuW6Jd-PAWR-65" value="+onTurnBegin(e: Player)" style="text;strokeColor=none;fillColor=none;align=left;verticalAlign=top;spacingLeft=4;spacingRight=4;overflow=hidden;rotatable=0;points=[[0,0.5],[1,0.5]];portConstraint=eastwest;whiteSpace=wrap;html=1;" parent="R1OB0yGb1VuW6Jd-PAWR-64" vertex="1">
          <mxGeometry y="39" width="180" height="26" as="geometry" />
        </mxCell>
        <mxCell id="R1OB0yGb1VuW6Jd-PAWR-66" value="" style="endArrow=block;dashed=1;endFill=0;endSize=12;html=1;rounded=0;entryX=1;entryY=0;entryDx=0;entryDy=0;exitX=-0.009;exitY=0.326;exitDx=0;exitDy=0;exitPerimeter=0;entryPerimeter=0;" parent="1" target="R1OB0yGb1VuW6Jd-PAWR-65" edge="1">
          <mxGeometry width="160" relative="1" as="geometry">
            <mxPoint x="1328.56" y="789.7360000000001" as="sourcePoint" />
            <mxPoint x="1130" y="671" as="targetPoint" />
          </mxGeometry>
        </mxCell>
        <mxCell id="R1OB0yGb1VuW6Jd-PAWR-67" value="" style="endArrow=block;dashed=1;endFill=0;endSize=12;html=1;rounded=0;exitX=1;exitY=0.167;exitDx=0;exitDy=0;exitPerimeter=0;entryX=0.002;entryY=0.244;entryDx=0;entryDy=0;entryPerimeter=0;" parent="1" source="R1OB0yGb1VuW6Jd-PAWR-1" target="R1OB0yGb1VuW6Jd-PAWR-65" edge="1">
          <mxGeometry width="160" relative="1" as="geometry">
            <mxPoint x="780" y="681" as="sourcePoint" />
            <mxPoint x="940" y="681" as="targetPoint" />
          </mxGeometry>
        </mxCell>
        <mxCell id="R1OB0yGb1VuW6Jd-PAWR-68" value="" style="endArrow=block;dashed=1;endFill=0;endSize=12;html=1;rounded=0;exitX=0;exitY=0.25;exitDx=0;exitDy=0;edgeStyle=orthogonalEdgeStyle;jumpStyle=arc;jumpSize=12;" parent="1" source="R1OB0yGb1VuW6Jd-PAWR-31" target="R1OB0yGb1VuW6Jd-PAWR-65" edge="1">
          <mxGeometry width="160" relative="1" as="geometry">
            <mxPoint x="1720" y="1324" as="sourcePoint" />
            <mxPoint x="1430" y="1111" as="targetPoint" />
            <Array as="points">
              <mxPoint x="1230" y="1374" />
              <mxPoint x="1230" y="1334" />
              <mxPoint x="950" y="1334" />
            </Array>
          </mxGeometry>
        </mxCell>
        <mxCell id="R1OB0yGb1VuW6Jd-PAWR-69" value="" style="endArrow=block;dashed=1;endFill=0;endSize=12;html=1;rounded=0;" parent="1" source="R1OB0yGb1VuW6Jd-PAWR-48" target="R1OB0yGb1VuW6Jd-PAWR-64" edge="1">
          <mxGeometry width="160" relative="1" as="geometry">
            <mxPoint x="950" y="530" as="sourcePoint" />
            <mxPoint x="1130" y="791" as="targetPoint" />
          </mxGeometry>
        </mxCell>
        <mxCell id="R1OB0yGb1VuW6Jd-PAWR-70" value="" style="endArrow=diamondThin;endFill=0;endSize=24;html=1;rounded=0;exitX=1;exitY=0.415;exitDx=0;exitDy=0;exitPerimeter=0;edgeStyle=orthogonalEdgeStyle;" parent="1" source="R1OB0yGb1VuW6Jd-PAWR-40" target="R1OB0yGb1VuW6Jd-PAWR-34" edge="1">
          <mxGeometry width="160" relative="1" as="geometry">
            <mxPoint x="2030" y="941" as="sourcePoint" />
            <mxPoint x="1880" y="691" as="targetPoint" />
            <Array as="points">
              <mxPoint x="1830" y="723" />
              <mxPoint x="1830" y="1414" />
            </Array>
          </mxGeometry>
        </mxCell>
        <mxCell id="R1OB0yGb1VuW6Jd-PAWR-71" value="TurnManager" style="swimlane;fontStyle=1;align=center;verticalAlign=top;childLayout=stackLayout;horizontal=1;startSize=26;horizontalStack=0;resizeParent=1;resizeParentMax=0;resizeLast=0;collapsible=1;marginBottom=0;whiteSpace=wrap;html=1;" parent="1" vertex="1">
          <mxGeometry x="1067" y="525" width="270" height="114" as="geometry" />
        </mxCell>
        <mxCell id="R1OB0yGb1VuW6Jd-PAWR-73" value="" style="line;strokeWidth=1;fillColor=none;align=left;verticalAlign=middle;spacingTop=-1;spacingLeft=3;spacingRight=3;rotatable=0;labelPosition=right;points=[];portConstraint=eastwest;strokeColor=inherit;" parent="R1OB0yGb1VuW6Jd-PAWR-71" vertex="1">
          <mxGeometry y="26" width="270" height="8" as="geometry" />
        </mxCell>
        <mxCell id="R1OB0yGb1VuW6Jd-PAWR-74" value="+subcribe(s: TurnBeginSubscriber)&lt;div&gt;+unsubscribe(s:&amp;nbsp;&lt;span style=&quot;background-color: transparent; color: light-dark(rgb(0, 0, 0), rgb(255, 255, 255));&quot;&gt;TurnBeginSubscriber)&lt;/span&gt;&lt;/div&gt;&lt;div&gt;&lt;span style=&quot;background-color: transparent; color: light-dark(rgb(0, 0, 0), rgb(255, 255, 255));&quot;&gt;+endTurn()&lt;/span&gt;&lt;/div&gt;&lt;div&gt;-notifySubscribers()&lt;/div&gt;&lt;div&gt;&lt;span style=&quot;background-color: transparent; color: light-dark(rgb(0, 0, 0), rgb(255, 255, 255));&quot;&gt;+onGameBegin()&lt;/span&gt;&lt;/div&gt;" style="text;strokeColor=none;fillColor=none;align=left;verticalAlign=top;spacingLeft=4;spacingRight=4;overflow=hidden;rotatable=0;points=[[0,0.5],[1,0.5]];portConstraint=eastwest;whiteSpace=wrap;html=1;" parent="R1OB0yGb1VuW6Jd-PAWR-71" vertex="1">
          <mxGeometry y="34" width="270" height="80" as="geometry" />
        </mxCell>
        <mxCell id="R1OB0yGb1VuW6Jd-PAWR-75" value="" style="endArrow=open;html=1;rounded=0;startArrow=open;startFill=0;endFill=0;" parent="1" source="SSjtnIJCoIMd_DeUDMs2-16" target="R1OB0yGb1VuW6Jd-PAWR-25" edge="1">
          <mxGeometry relative="1" as="geometry">
            <mxPoint x="1580" y="1021" as="sourcePoint" />
            <mxPoint x="1693" y="1020" as="targetPoint" />
          </mxGeometry>
        </mxCell>
        <mxCell id="R1OB0yGb1VuW6Jd-PAWR-76" value="0..*" style="edgeLabel;html=1;align=center;verticalAlign=middle;resizable=0;points=[];" parent="R1OB0yGb1VuW6Jd-PAWR-75" vertex="1" connectable="0">
          <mxGeometry x="0.8128" relative="1" as="geometry">
            <mxPoint x="18" y="-5" as="offset" />
          </mxGeometry>
        </mxCell>
        <mxCell id="ASJvsTNGaL9EbCQtERID-6" value="1" style="edgeLabel;html=1;align=center;verticalAlign=middle;resizable=0;points=[];" parent="R1OB0yGb1VuW6Jd-PAWR-75" vertex="1" connectable="0">
          <mxGeometry x="0.8128" relative="1" as="geometry">
            <mxPoint x="-10" y="-79" as="offset" />
          </mxGeometry>
        </mxCell>
        <mxCell id="R1OB0yGb1VuW6Jd-PAWR-79" value="" style="endArrow=diamondThin;html=1;edgeStyle=orthogonalEdgeStyle;rounded=0;exitX=0.75;exitY=0;exitDx=0;exitDy=0;startArrow=none;startFill=0;endFill=0;endSize=24;" parent="1" source="R1OB0yGb1VuW6Jd-PAWR-64" edge="1">
          <mxGeometry relative="1" as="geometry">
            <mxPoint x="1050" y="751" as="sourcePoint" />
            <mxPoint x="1067" y="564" as="targetPoint" />
            <Array as="points">
              <mxPoint x="995" y="564" />
            </Array>
          </mxGeometry>
        </mxCell>
        <mxCell id="R1OB0yGb1VuW6Jd-PAWR-81" value="GameBoard" style="swimlane;fontStyle=1;align=center;verticalAlign=top;childLayout=stackLayout;horizontal=1;startSize=26;horizontalStack=0;resizeParent=1;resizeParentMax=0;resizeLast=0;collapsible=1;marginBottom=0;whiteSpace=wrap;html=1;" parent="1" vertex="1">
          <mxGeometry x="510" y="493" width="210" height="90" as="geometry" />
        </mxCell>
        <mxCell id="R1OB0yGb1VuW6Jd-PAWR-83" value="" style="line;strokeWidth=1;fillColor=none;align=left;verticalAlign=middle;spacingTop=-1;spacingLeft=3;spacingRight=3;rotatable=0;labelPosition=right;points=[];portConstraint=eastwest;strokeColor=inherit;" parent="R1OB0yGb1VuW6Jd-PAWR-81" vertex="1">
          <mxGeometry y="26" width="210" height="8" as="geometry" />
        </mxCell>
        <mxCell id="R1OB0yGb1VuW6Jd-PAWR-84" value="+onGameBegin()&lt;div&gt;+addTecton()&lt;/div&gt;&lt;div&gt;+checkMyceliumConnectivity()&lt;/div&gt;" style="text;strokeColor=none;fillColor=none;align=left;verticalAlign=top;spacingLeft=4;spacingRight=4;overflow=hidden;rotatable=0;points=[[0,0.5],[1,0.5]];portConstraint=eastwest;whiteSpace=wrap;html=1;" parent="R1OB0yGb1VuW6Jd-PAWR-81" vertex="1">
          <mxGeometry y="34" width="210" height="56" as="geometry" />
        </mxCell>
        <mxCell id="R1OB0yGb1VuW6Jd-PAWR-87" value="&lt;font style=&quot;font-weight: 700;&quot;&gt;&lt;span style=&quot;font-weight: 400; color: rgb(32, 33, 34); font-family: sans-serif; text-align: start; background-color: rgb(255, 255, 255);&quot;&gt;«&lt;/span&gt;&lt;span style=&quot;color: rgb(32, 33, 34); font-family: sans-serif; text-align: start; background-color: rgb(255, 255, 255); font-weight: 400;&quot;&gt;Interface&lt;/span&gt;&lt;span style=&quot;font-weight: 400; color: rgb(32, 33, 34); font-family: sans-serif; text-align: start; background-color: rgb(255, 255, 255);&quot;&gt;»&lt;/span&gt;&lt;/font&gt;&lt;div&gt;&lt;font style=&quot;&quot;&gt;&lt;span style=&quot;color: rgb(32, 33, 34); font-family: sans-serif; text-align: start; background-color: rgb(255, 255, 255);&quot;&gt;&lt;b&gt;GameBeginSubscriber&lt;/b&gt;&lt;/span&gt;&lt;/font&gt;&lt;/div&gt;" style="swimlane;fontStyle=0;childLayout=stackLayout;horizontal=1;startSize=50;fillColor=none;horizontalStack=0;resizeParent=1;resizeParentMax=0;resizeLast=0;collapsible=1;marginBottom=0;whiteSpace=wrap;html=1;" parent="1" vertex="1">
          <mxGeometry x="720" y="620" width="200" height="76" as="geometry" />
        </mxCell>
        <mxCell id="R1OB0yGb1VuW6Jd-PAWR-88" value="+onGameBegin()" style="text;strokeColor=none;fillColor=none;align=left;verticalAlign=top;spacingLeft=4;spacingRight=4;overflow=hidden;rotatable=0;points=[[0,0.5],[1,0.5]];portConstraint=eastwest;whiteSpace=wrap;html=1;" parent="R1OB0yGb1VuW6Jd-PAWR-87" vertex="1">
          <mxGeometry y="50" width="200" height="26" as="geometry" />
        </mxCell>
        <mxCell id="R1OB0yGb1VuW6Jd-PAWR-89" value="" style="endArrow=block;dashed=1;endFill=0;endSize=12;html=1;rounded=0;exitX=1.001;exitY=0.186;exitDx=0;exitDy=0;exitPerimeter=0;entryX=0.555;entryY=0;entryDx=0;entryDy=0;entryPerimeter=0;edgeStyle=orthogonalEdgeStyle;" parent="1" source="R1OB0yGb1VuW6Jd-PAWR-84" target="R1OB0yGb1VuW6Jd-PAWR-87" edge="1">
          <mxGeometry width="160" relative="1" as="geometry">
            <mxPoint x="920" y="641" as="sourcePoint" />
            <mxPoint x="840" y="585" as="targetPoint" />
          </mxGeometry>
        </mxCell>
        <mxCell id="R1OB0yGb1VuW6Jd-PAWR-91" value="" style="endArrow=diamondThin;html=1;rounded=0;exitX=0.799;exitY=-0.001;exitDx=0;exitDy=0;endFill=0;endSize=24;exitPerimeter=0;" parent="1" source="R1OB0yGb1VuW6Jd-PAWR-87" edge="1">
          <mxGeometry relative="1" as="geometry">
            <mxPoint x="880" y="731" as="sourcePoint" />
            <mxPoint x="880" y="510" as="targetPoint" />
          </mxGeometry>
        </mxCell>
        <mxCell id="R1OB0yGb1VuW6Jd-PAWR-94" value="" style="endArrow=block;dashed=1;endFill=0;html=1;rounded=0;jumpStyle=arc;jumpSize=12;endSize=12;fontStyle=0;edgeStyle=orthogonalEdgeStyle;" parent="1" source="R1OB0yGb1VuW6Jd-PAWR-44" target="R1OB0yGb1VuW6Jd-PAWR-65" edge="1">
          <mxGeometry width="160" relative="1" as="geometry">
            <mxPoint x="1410" y="1200" as="sourcePoint" />
            <mxPoint x="1010" y="820" as="targetPoint" />
            <Array as="points">
              <mxPoint x="990" y="1300" />
            </Array>
          </mxGeometry>
        </mxCell>
        <mxCell id="R1OB0yGb1VuW6Jd-PAWR-95" value="" style="endArrow=diamondThin;endFill=0;endSize=24;html=1;rounded=0;exitX=0;exitY=0.5;exitDx=0;exitDy=0;edgeStyle=orthogonalEdgeStyle;jumpStyle=arc;jumpSize=12;entryX=0.5;entryY=0;entryDx=0;entryDy=0;" parent="1" target="R1OB0yGb1VuW6Jd-PAWR-1" edge="1">
          <mxGeometry width="160" relative="1" as="geometry">
            <mxPoint x="1640" y="705" as="sourcePoint" />
            <mxPoint x="505" y="751" as="targetPoint" />
          </mxGeometry>
        </mxCell>
        <mxCell id="R1OB0yGb1VuW6Jd-PAWR-97" value="" style="endArrow=open;endSize=12;dashed=1;html=1;rounded=0;exitX=0.75;exitY=0;exitDx=0;exitDy=0;" parent="1" source="R1OB0yGb1VuW6Jd-PAWR-41" target="R1OB0yGb1VuW6Jd-PAWR-59" edge="1">
          <mxGeometry width="160" relative="1" as="geometry">
            <mxPoint x="1220" y="1141" as="sourcePoint" />
            <mxPoint x="1260" y="1099" as="targetPoint" />
          </mxGeometry>
        </mxCell>
        <mxCell id="SSjtnIJCoIMd_DeUDMs2-2" value="" style="endArrow=diamondThin;endFill=1;endSize=24;html=1;rounded=0;exitX=0.5;exitY=0;exitDx=0;exitDy=0;jumpStyle=arc;jumpSize=12;edgeStyle=orthogonalEdgeStyle;" parent="1" target="R1OB0yGb1VuW6Jd-PAWR-48" edge="1">
          <mxGeometry width="160" relative="1" as="geometry">
            <mxPoint x="1410" y="744" as="sourcePoint" />
            <mxPoint x="1060" y="452" as="targetPoint" />
            <Array as="points">
              <mxPoint x="1411" y="744" />
              <mxPoint x="1411" y="430" />
            </Array>
          </mxGeometry>
        </mxCell>
        <mxCell id="SSjtnIJCoIMd_DeUDMs2-11" value="" style="endArrow=diamondThin;endFill=1;endSize=24;html=1;rounded=0;exitX=0.25;exitY=0;exitDx=0;exitDy=0;entryX=1;entryY=0.72;entryDx=0;entryDy=0;entryPerimeter=0;edgeStyle=orthogonalEdgeStyle;jumpStyle=arc;jumpSize=12;" parent="1" source="R1OB0yGb1VuW6Jd-PAWR-27" target="R1OB0yGb1VuW6Jd-PAWR-4" edge="1">
          <mxGeometry width="160" relative="1" as="geometry">
            <mxPoint x="1441" y="1243.48" as="sourcePoint" />
            <mxPoint x="610" y="845" as="targetPoint" />
            <Array as="points">
              <mxPoint x="1070" y="1350" />
              <mxPoint x="1070" y="898" />
            </Array>
          </mxGeometry>
        </mxCell>
        <mxCell id="I5FOU1lmO1Y8r9ht8gTu-1" value="&lt;b&gt;Entomologist&lt;/b&gt;&lt;div&gt;&lt;b&gt;&lt;br&gt;&lt;/b&gt;&lt;/div&gt;" style="swimlane;fontStyle=1;align=center;verticalAlign=top;childLayout=stackLayout;horizontal=1;startSize=26;horizontalStack=0;resizeParent=1;resizeParentMax=0;resizeLast=0;collapsible=1;marginBottom=0;whiteSpace=wrap;html=1;" parent="1" vertex="1">
          <mxGeometry x="1401" y="946" width="160" height="70" as="geometry" />
        </mxCell>
        <mxCell id="I5FOU1lmO1Y8r9ht8gTu-2" value="" style="line;strokeWidth=1;fillColor=none;align=left;verticalAlign=middle;spacingTop=-1;spacingLeft=3;spacingRight=3;rotatable=0;labelPosition=right;points=[];portConstraint=eastwest;strokeColor=inherit;" parent="I5FOU1lmO1Y8r9ht8gTu-1" vertex="1">
          <mxGeometry y="26" width="160" height="8" as="geometry" />
        </mxCell>
        <mxCell id="I5FOU1lmO1Y8r9ht8gTu-3" value="+onTurnBegin(e: Player)&lt;div&gt;+calculateScore()&lt;/div&gt;" style="text;strokeColor=none;fillColor=none;align=left;verticalAlign=top;spacingLeft=4;spacingRight=4;overflow=hidden;rotatable=0;points=[[0,0.5],[1,0.5]];portConstraint=eastwest;whiteSpace=wrap;html=1;" parent="I5FOU1lmO1Y8r9ht8gTu-1" vertex="1">
          <mxGeometry y="34" width="160" height="36" as="geometry" />
        </mxCell>
        <mxCell id="I5FOU1lmO1Y8r9ht8gTu-4" value="" style="endArrow=diamondThin;endFill=1;endSize=24;html=1;rounded=0;entryX=0;entryY=0.5;entryDx=0;entryDy=0;exitX=0.5;exitY=0;exitDx=0;exitDy=0;edgeStyle=orthogonalEdgeStyle;" parent="1" target="R1OB0yGb1VuW6Jd-PAWR-84" edge="1">
          <mxGeometry width="160" relative="1" as="geometry">
            <mxPoint x="440" y="771" as="sourcePoint" />
            <mxPoint x="60" y="478.9939999999999" as="targetPoint" />
          </mxGeometry>
        </mxCell>
        <mxCell id="Vh8VJ31RXxQbdsVbW_FH-1" value="" style="endArrow=block;dashed=1;endFill=0;endSize=12;html=1;rounded=0;entryX=1;entryY=0.5;entryDx=0;entryDy=0;jumpStyle=arc;jumpSize=12;" parent="1" target="R1OB0yGb1VuW6Jd-PAWR-87" edge="1">
          <mxGeometry width="160" relative="1" as="geometry">
            <mxPoint x="1200" y="640" as="sourcePoint" />
            <mxPoint x="840" y="631" as="targetPoint" />
            <Array as="points">
              <mxPoint x="1200" y="660" />
              <mxPoint x="1090" y="660" />
            </Array>
          </mxGeometry>
        </mxCell>
        <mxCell id="Vh8VJ31RXxQbdsVbW_FH-3" value="A getter annak hangsúlyozása céljából szerepel, hogy ennél az osztálynál csak getter van, setter nincs." style="shape=note2;boundedLbl=1;whiteSpace=wrap;html=1;size=25;verticalAlign=top;align=center;" parent="1" vertex="1">
          <mxGeometry x="1730" y="580" width="217" height="80" as="geometry" />
        </mxCell>
        <mxCell id="ASJvsTNGaL9EbCQtERID-1" value="" style="endArrow=open;html=1;edgeStyle=orthogonalEdgeStyle;rounded=0;jumpStyle=arc;jumpSize=12;startArrow=none;startFill=0;endFill=0;" parent="1" target="R1OB0yGb1VuW6Jd-PAWR-31" edge="1">
          <mxGeometry relative="1" as="geometry">
            <mxPoint x="610" y="868.0666666666666" as="sourcePoint" />
            <mxPoint x="1380" y="1320" as="targetPoint" />
            <Array as="points">
              <mxPoint x="1390" y="868" />
            </Array>
          </mxGeometry>
        </mxCell>
        <mxCell id="ASJvsTNGaL9EbCQtERID-2" value="1" style="edgeLabel;resizable=0;html=1;align=left;verticalAlign=bottom;" parent="ASJvsTNGaL9EbCQtERID-1" connectable="0" vertex="1">
          <mxGeometry x="-1" relative="1" as="geometry">
            <mxPoint x="5" y="-2" as="offset" />
          </mxGeometry>
        </mxCell>
        <mxCell id="ASJvsTNGaL9EbCQtERID-14" value="0..1" style="edgeLabel;resizable=0;html=1;align=left;verticalAlign=bottom;" parent="ASJvsTNGaL9EbCQtERID-1" connectable="0" vertex="1">
          <mxGeometry x="-1" relative="1" as="geometry">
            <mxPoint x="790" y="472" as="offset" />
          </mxGeometry>
        </mxCell>
        <mxCell id="SSjtnIJCoIMd_DeUDMs2-13" value="&lt;strong data-end=&quot;60&quot; data-start=&quot;46&quot;&gt;Mycologist&lt;/strong&gt;" style="swimlane;fontStyle=1;align=center;verticalAlign=top;childLayout=stackLayout;horizontal=1;startSize=26;horizontalStack=0;resizeParent=1;resizeParentMax=0;resizeLast=0;collapsible=1;marginBottom=0;whiteSpace=wrap;html=1;" parent="1" vertex="1">
          <mxGeometry x="1130" y="930" width="160" height="120" as="geometry" />
        </mxCell>
        <mxCell id="SSjtnIJCoIMd_DeUDMs2-14" value="&lt;div&gt;+ grows: int&lt;/div&gt;" style="text;strokeColor=none;fillColor=none;align=left;verticalAlign=top;spacingLeft=4;spacingRight=4;overflow=hidden;rotatable=0;points=[[0,0.5],[1,0.5]];portConstraint=eastwest;whiteSpace=wrap;html=1;" parent="SSjtnIJCoIMd_DeUDMs2-13" vertex="1">
          <mxGeometry y="26" width="160" height="26" as="geometry" />
        </mxCell>
        <mxCell id="SSjtnIJCoIMd_DeUDMs2-15" value="" style="line;strokeWidth=1;fillColor=none;align=left;verticalAlign=middle;spacingTop=-1;spacingLeft=3;spacingRight=3;rotatable=0;labelPosition=right;points=[];portConstraint=eastwest;strokeColor=inherit;" parent="SSjtnIJCoIMd_DeUDMs2-13" vertex="1">
          <mxGeometry y="52" width="160" height="8" as="geometry" />
        </mxCell>
        <mxCell id="SSjtnIJCoIMd_DeUDMs2-16" value="+addMushroomBody()&lt;div&gt;+calculateScore()&lt;/div&gt;&lt;div&gt;+onTurnBegin(e: Player)&lt;/div&gt;" style="text;strokeColor=none;fillColor=none;align=left;verticalAlign=top;spacingLeft=4;spacingRight=4;overflow=hidden;rotatable=0;points=[[0,0.5],[1,0.5]];portConstraint=eastwest;whiteSpace=wrap;html=1;" parent="SSjtnIJCoIMd_DeUDMs2-13" vertex="1">
          <mxGeometry y="60" width="160" height="60" as="geometry" />
        </mxCell>
        <mxCell id="ASJvsTNGaL9EbCQtERID-4" value="" style="endArrow=block;endSize=16;endFill=0;html=1;rounded=0;entryX=0.75;entryY=1;entryDx=0;entryDy=0;edgeStyle=orthogonalEdgeStyle;" parent="1" source="I5FOU1lmO1Y8r9ht8gTu-1" target="ASJvsTNGaL9EbCQtERID-10" edge="1">
          <mxGeometry width="160" relative="1" as="geometry">
            <mxPoint x="1281" y="925" as="sourcePoint" />
            <mxPoint x="1450" y="814" as="targetPoint" />
          </mxGeometry>
        </mxCell>
        <mxCell id="ASJvsTNGaL9EbCQtERID-7" value="" style="endArrow=open;html=1;rounded=0;startArrow=open;startFill=0;exitX=0.75;exitY=1;exitDx=0;exitDy=0;exitPerimeter=0;entryX=0.381;entryY=0;entryDx=0;entryDy=0;entryPerimeter=0;endFill=0;" parent="1" source="I5FOU1lmO1Y8r9ht8gTu-3" target="R1OB0yGb1VuW6Jd-PAWR-41" edge="1">
          <mxGeometry relative="1" as="geometry">
            <mxPoint x="1520" y="927" as="sourcePoint" />
            <mxPoint x="1520" y="1040" as="targetPoint" />
          </mxGeometry>
        </mxCell>
        <mxCell id="ASJvsTNGaL9EbCQtERID-8" value="1" style="edgeLabel;html=1;align=center;verticalAlign=middle;resizable=0;points=[];" parent="ASJvsTNGaL9EbCQtERID-7" vertex="1" connectable="0">
          <mxGeometry x="0.8128" relative="1" as="geometry">
            <mxPoint x="9" y="3" as="offset" />
          </mxGeometry>
        </mxCell>
        <mxCell id="ASJvsTNGaL9EbCQtERID-9" value="1" style="edgeLabel;html=1;align=center;verticalAlign=middle;resizable=0;points=[];" parent="ASJvsTNGaL9EbCQtERID-7" vertex="1" connectable="0">
          <mxGeometry x="0.8128" relative="1" as="geometry">
            <mxPoint x="-11" y="-117" as="offset" />
          </mxGeometry>
        </mxCell>
        <mxCell id="ASJvsTNGaL9EbCQtERID-10" value="&lt;i&gt;Player&lt;/i&gt;" style="swimlane;fontStyle=1;align=center;verticalAlign=top;childLayout=stackLayout;horizontal=1;startSize=26;horizontalStack=0;resizeParent=1;resizeParentMax=0;resizeLast=0;collapsible=1;marginBottom=0;whiteSpace=wrap;html=1;" parent="1" vertex="1">
          <mxGeometry x="1330" y="720" width="160" height="120" as="geometry" />
        </mxCell>
        <mxCell id="ASJvsTNGaL9EbCQtERID-11" value="&lt;div&gt;+ name: String&lt;/div&gt;&lt;div&gt;+color: String&lt;/div&gt;" style="text;strokeColor=none;fillColor=none;align=left;verticalAlign=top;spacingLeft=4;spacingRight=4;overflow=hidden;rotatable=0;points=[[0,0.5],[1,0.5]];portConstraint=eastwest;whiteSpace=wrap;html=1;" parent="ASJvsTNGaL9EbCQtERID-10" vertex="1">
          <mxGeometry y="26" width="160" height="44" as="geometry" />
        </mxCell>
        <mxCell id="ASJvsTNGaL9EbCQtERID-12" value="" style="line;strokeWidth=1;fillColor=none;align=left;verticalAlign=middle;spacingTop=-1;spacingLeft=3;spacingRight=3;rotatable=0;labelPosition=right;points=[];portConstraint=eastwest;strokeColor=inherit;" parent="ASJvsTNGaL9EbCQtERID-10" vertex="1">
          <mxGeometry y="70" width="160" height="8" as="geometry" />
        </mxCell>
        <mxCell id="ASJvsTNGaL9EbCQtERID-13" value="+calculateScore()&lt;div&gt;+onTurnBegin(e: Player)&lt;/div&gt;" style="text;strokeColor=none;fillColor=none;align=left;verticalAlign=top;spacingLeft=4;spacingRight=4;overflow=hidden;rotatable=0;points=[[0,0.5],[1,0.5]];portConstraint=eastwest;whiteSpace=wrap;html=1;" parent="ASJvsTNGaL9EbCQtERID-10" vertex="1">
          <mxGeometry y="78" width="160" height="42" as="geometry" />
        </mxCell>
      </root>
    </mxGraphModel>
  </diagram>
</mxfile>
